<?xml version="1.0" encoding="utf-8"?>
<!-- Generator: Adobe Illustrator 21.0.2, SVG Export Plug-In . SVG Version: 6.00 Build 0)  -->
<svg version="1.1" id="svg3109" xmlns="http://www.w3.org/2000/svg" xmlns:xlink="http://www.w3.org/1999/xlink" x="0px" y="0px"
	 viewBox="0 0 900 450" style="enable-background:new 0 0 900 450;" xml:space="preserve">
<style type="text/css">
	.st0{fill:none;stroke:#DDDDDD;stroke-width:4.15;}
	.st1{fill:none;stroke:#DDDDDD;stroke-width:4.03;}
	.st2{fill:none;stroke:#DDDDDD;stroke-width:4.02;}
	.st3{fill:none;stroke:#DDDDDD;stroke-width:4.15;stroke-linecap:round;}
</style>
<title>Artboard 1</title>
<path id="path3117" class="st0" d="M849.7,0v449.7H425.2V0H849.7"/>
<path id="path3119" class="st1" d="M849.8,0.1v25.6H723.2V0.1H849.8z"/>
<path id="path3121" class="st2" d="M849.8,424.1v25.4H723.2V424L849.8,424.1L849.8,424.1z"/>
<path id="path3123" class="st0" d="M722.5,25.7C612.7,70.4,560,195.8,604.7,305.9c21.7,53.7,64.2,96.3,117.8,118.2"/>
<path id="path3125" class="st0" d="M849.7,152.5H678.1v144.9h171.5V152.5z"/>
<path id="path3127" class="st0" d="M849.7,170.5H678.1v108.7h171.5V170.5z"/>
<path id="path3129" class="st0" d="M678.1,170.5c-30,0.5-53.9,25.3-53.3,55.3c0.5,29.2,24.1,52.8,53.3,53.3l0,0
	c30-0.5,53.9-25.3,53.3-55.3C730.9,194.6,707.4,171.1,678.1,170.5L678.1,170.5z"/>
<path id="path3131" class="st0" d="M425.2,170.5c30,0.5,53.9,25.3,53.3,55.3c-0.5,29.2-24.1,52.8-53.3,53.3V170.5z"/>
<path id="path3133" class="st0" d="M425.2,206.8c10,0.7,17.5,9.4,16.8,19.4c-0.6,9-7.8,16.2-16.8,16.8V206.8z"/>
<path id="path3135" class="st0" d="M813.6,197.7v54.3"/>
<path id="path3137" class="st0" d="M813.6,224.9H809"/>
<path id="path3139" class="st0" d="M802.3,218.1c-3.8,0-6.8,3-6.8,6.8c0,3.8,3,6.8,6.8,6.8c3.8,0,6.8-3,6.8-6.8l0,0l0,0
	C809,221.1,806,218.2,802.3,218.1z"/>
<path id="path3141" class="st3" d="M596.9,27.5V0.3"/>
<path id="path3143" class="st3" d="M596.9,449.5v-27.1"/>
<path id="path3145" class="st0" d="M849.7,125.3h-9.1"/>
<path id="path3147" class="st0" d="M849.7,324.5h-9.1"/>
<path id="path3149" class="st0" d="M786.4,152.5v-9.1"/>
<path id="path3151" class="st0" d="M777.5,152.5v-9.1"/>
<path id="path3153" class="st0" d="M750.3,152.5v-9.1"/>
<path id="path3155" class="st0" d="M723.2,152.5v-9.1"/>
<path id="path3157" class="st0" d="M786.4,297.3v9.1"/>
<path id="path3159" class="st0" d="M777.5,297.3v9.1"/>
<path id="path3161" class="st0" d="M750.3,297.3v9.1"/>
<path id="path3163" class="st0" d="M723.2,297.3v9.1"/>
<path id="path3117-2" class="st0" d="M0.8,449.7V0h424.4v449.7H0.8"/>
<path id="path3119-2" class="st1" d="M1.9,450v-25.6h126.5V450H1.9z"/>
<path id="path3121-2" class="st2" d="M1.9,26V0.6h126.5v25.5L1.9,26L1.9,26z"/>
<path id="path3123-2" class="st0" d="M129.2,424.4C238.9,379.7,291.6,254.3,247,144.2C225.3,90.5,182.8,47.9,129.2,26"/>
<path id="path3125-2" class="st0" d="M2,297.6h171.5V152.8H2V297.6z"/>
<path id="path3127-2" class="st0" d="M2,279.6h171.5V170.9H2V279.6z"/>
<path id="path3129-2" class="st0" d="M173.5,279.6c30-0.5,53.9-25.3,53.3-55.3c-0.5-29.2-24.1-52.8-53.3-53.3l0,0
	c-30,0.5-53.9,25.3-53.3,55.3C120.7,255.5,144.3,279,173.5,279.6z"/>
<path id="path3131-2" class="st0" d="M426.4,279.6c-30-0.5-53.9-25.3-53.3-55.3c0.5-29.2,24.1-52.8,53.3-53.3V279.6z"/>
<path id="path3133-2" class="st0" d="M426.4,243.3c-10-0.7-17.5-9.4-16.8-19.4c0.6-9,7.8-16.2,16.8-16.8V243.3z"/>
<path id="path3135-2" class="st0" d="M38.1,252.3V198"/>
<path id="path3137-2" class="st0" d="M38.1,225.2h4.5"/>
<path id="path3139-2" class="st0" d="M49.3,232c3.8,0,6.8-3,6.8-6.8c0-3.8-3-6.8-6.8-6.8s-6.8,3-6.8,6.8l0,0l0,0
	C42.6,228.9,45.6,231.9,49.3,232z"/>
<path id="path3141-2" class="st3" d="M254.8,422.6v27.2"/>
<path id="path3143-2" class="st3" d="M254.8,0.6v27.1"/>
<path id="path3145-2" class="st0" d="M2,324.8h9.1"/>
<path id="path3147-2" class="st0" d="M2,125.6h9.1"/>
<path id="path3149-2" class="st0" d="M65.2,297.6v9.1"/>
<path id="path3151-2" class="st0" d="M74.2,297.6v9.1"/>
<path id="path3153-2" class="st0" d="M101.3,297.6v9.1"/>
<path id="path3155-2" class="st0" d="M128.4,297.6v9.1"/>
<path id="path3157-2" class="st0" d="M65.2,152.8v-9.1"/>
<path id="path3159-2" class="st0" d="M74.2,152.8v-9.1"/>
<path id="path3161-2" class="st0" d="M101.3,152.8v-9.1"/>
<path id="path3163-2" class="st0" d="M128.4,152.8v-9.1"/>
</svg>
