<?xml version="1.0" encoding="utf-8"?>
<!-- Generator: Adobe Illustrator 21.0.2, SVG Export Plug-In . SVG Version: 6.00 Build 0)  -->
<svg version="1.1" id="svg3109" xmlns="http://www.w3.org/2000/svg" xmlns:xlink="http://www.w3.org/1999/xlink" x="0px" y="0px"
	 viewBox="0 0 900 450" style="enable-background:new 0 0 900 450;" xml:space="preserve">
<style type="text/css">
	.st0{fill:none;stroke:#DDDDDD;stroke-width:4.15;}
</style>
<title>Artboard 1</title>
<path class="st0" d="M425.2,0h424.5"/>
<path class="st0" d="M849.7,0v449.7H425.2"/>
<path id="path3123" class="st0" d="M849.8,25.7H723.2h-0.7C612.7,70.4,560,195.8,604.7,305.9c21.7,53.7,64.2,96.3,117.8,118.2
	l0.7-0.1l126.6,0.1"/>
<path id="path3135" class="st0" d="M813.6,197.7V252"/>
<path id="path3137" class="st0" d="M813.6,224.9H809"/>
<path id="path3139" class="st0" d="M802.3,218.1c-3.8,0-6.8,3-6.8,6.8s3,6.8,6.8,6.8s6.8-3,6.8-6.8l0,0l0,0
	C809,221.1,806,218.2,802.3,218.1z"/>
<path class="st0" d="M425.2,449.7H0.8"/>
<path class="st0" d="M0.8,449.7V0h424.4"/>
<path id="path3123-2" class="st0" d="M1.9,424.4h126.5h0.8C238.9,379.7,291.6,254.3,247,144.2C225.3,90.5,182.8,47.9,129.2,26
	l-0.8,0.1L1.9,26"/>
<path id="path3135-2" class="st0" d="M38.1,252.3V198"/>
<path id="path3137-2" class="st0" d="M38.1,225.2h4.5"/>
<path id="path3139-2" class="st0" d="M49.3,232c3.8,0,6.8-3,6.8-6.8s-3-6.8-6.8-6.8s-6.8,3-6.8,6.8l0,0l0,0
	C42.6,228.9,45.6,231.9,49.3,232z"/>
</svg>
