<?xml version="1.0" encoding="utf-8"?>
<!-- Generator: Adobe Illustrator 21.0.0, SVG Export Plug-In . SVG Version: 6.00 Build 0)  -->
<svg version="1.1" id="svg3109" xmlns="http://www.w3.org/2000/svg" xmlns:xlink="http://www.w3.org/1999/xlink" x="0px" y="0px"
	 viewBox="0 0 500 472" style="enable-background:new 0 0 500 472;" xml:space="preserve">
<style type="text/css">
	.st0{fill:none;stroke:#DDDDDD;stroke-width:4.15;}
	.st1{fill:none;stroke:#DDDDDD;stroke-width:4.03;}
	.st2{fill:none;stroke:#DDDDDD;stroke-width:4.02;}
	.st3{fill:none;stroke:#DDDDDD;stroke-width:4.15;stroke-linecap:round;}
</style>
<path id="path3117" class="st0" d="M497.9,470H2.1V2.1h495.8V470"/>
<path id="path3119" class="st1" d="M497.8,470.1h-28.2V330.6h28.2V470.1z"/>
<path id="path3121" class="st2" d="M30.4,470.1h-28V330.6h28.1v139.5H30.4z"/>
<path id="path3123" class="st0" d="M469.6,329.8c-49.3-121-187.6-179.1-308.9-129.9c-59.2,24-106.2,70.8-130.3,129.9"/>
<path id="path3125" class="st0" d="M329.8,470V280.9H170.1V470H329.8z"/>
<path id="path3127" class="st0" d="M309.9,470V280.9H190.1V470H309.9z"/>
<path id="path3129" class="st0" d="M309.9,280.9c-0.4-33.1-27.6-59.5-60.7-59.1c-32.5,0.4-58.7,26.6-59.1,59.1l0,0
	c0.4,33.1,27.6,59.5,60.7,59.1C283.2,339.6,309.5,313.3,309.9,280.9z"/>
<path id="path3131" class="st0" d="M309.9,2.1c-0.4,33.1-27.6,59.5-60.7,59.1c-32.5-0.4-58.7-26.6-59.1-59.1
	C190.1,2.1,309.9,2.1,309.9,2.1z"/>
<path id="path3133" class="st0" d="M269.9,2.1c-0.7,11-10.1,19.4-21.1,18.8c-10.1-0.6-18.2-8.7-18.8-18.8
	C230,2.1,269.9,2.1,269.9,2.1z"/>
<path id="path3135" class="st0" d="M279.9,430.2H220"/>
<path id="path3137" class="st0" d="M250,430.2v-5"/>
<path id="path3139" class="st0" d="M257.5,417.8c0-4.1-3.3-7.5-7.5-7.5c-4.1,0-7.5,3.3-7.5,7.5c0,4.1,3.3,7.5,7.5,7.5l0,0
	C254.1,425.2,257.4,421.9,257.5,417.8z"/>
<path id="path3141" class="st3" d="M467.6,191.3h30"/>
<path id="path3143" class="st3" d="M2.4,191.3h29.9"/>
<path id="path3145" class="st0" d="M359.8,470v-10"/>
<path id="path3147" class="st0" d="M140.2,470v-10"/>
<path id="path3149" class="st0" d="M329.8,400.3h10"/>
<path id="path3151" class="st0" d="M329.8,390.4h10"/>
<path id="path3153" class="st0" d="M329.8,360.5h10"/>
<path id="path3155" class="st0" d="M329.8,330.6h10"/>
<path id="path3157" class="st0" d="M170.1,400.3h-10"/>
<path id="path3159" class="st0" d="M170.1,390.4h-10"/>
<path id="path3161" class="st0" d="M170.1,360.5h-10"/>
<path id="path3163" class="st0" d="M170.1,330.6h-10"/>
</svg>
